<svg width="256" height="256" viewBox="0 0 256 256" fill="none" xmlns="http://www.w3.org/2000/svg">
<g clip-path="url(#clip0_1_2)">
<path fill-rule="evenodd" clip-rule="evenodd" d="M168.787 0H87.2129C59.9434 0 47.5573 0.0637801 34.2442 4.24624C20.3248 9.35715 9.35715 20.3248 4.24624 34.2442C0.0637828 47.5573 0 59.9456 0 87.2129V168.787C0 196.056 0.0637469 208.44 4.24627 221.756C9.35732 235.676 20.3252 246.643 34.2441 251.752C47.5571 255.936 59.9426 256 87.2129 256H168.787C196.057 256 208.441 255.936 221.756 251.752C235.675 246.643 246.643 235.676 251.754 221.756C255.936 208.441 256 196.056 256 168.787V87.2129C256 59.9454 255.936 47.5571 251.754 34.2439C246.643 20.3247 235.675 9.35717 221.756 4.24627C208.44 0.0637469 196.056 0 168.787 0Z" fill="url(#paint0_linear_1_2)"/>
<path d="M85.1426 67.0919V159.597C85.1415 159.818 85.0889 160.035 84.9893 160.232C84.8896 160.429 84.7455 160.6 84.5683 160.731C84.3912 160.863 84.1858 160.951 83.9686 160.99C83.7513 161.028 83.5281 161.016 83.3166 160.953C80.2058 160.064 76.986 159.615 73.7507 159.618C56.2152 159.618 42 172.494 42 188.377C42 204.26 56.2152 217.136 73.7507 217.136C85.8015 217.136 97.8551 210.586 102.865 199.418C107.219 189.712 105.501 178.044 105.501 167.635V92.396C105.502 91.8629 105.684 91.3458 106.016 90.929C106.348 90.5122 106.812 90.2202 107.332 90.1005L174.643 74.4671C174.989 74.3856 175.35 74.3833 175.698 74.4606C176.045 74.5378 176.371 74.6925 176.65 74.9132C176.93 75.1338 177.156 75.4147 177.312 75.7349C177.468 76.0551 177.549 76.4064 177.551 76.7625V152.525C177.55 152.746 177.497 152.963 177.397 153.16C177.298 153.357 177.154 153.528 176.977 153.66C176.799 153.791 176.594 153.88 176.377 153.918C176.159 153.957 175.936 153.944 175.725 153.881C172.614 152.992 169.394 152.543 166.159 152.545C148.623 152.545 134.408 165.422 134.408 181.305C134.408 197.188 148.623 210.064 166.158 210.064C176.77 210.064 187.321 204.571 193.273 195.583C199.039 186.874 197.912 177.725 197.909 167.885C197.904 150.335 197.904 132.786 197.909 115.236V45.0753C197.905 44.0165 197.665 42.9718 197.206 42.0179C196.746 41.0639 196.079 40.2249 195.253 39.5622C194.427 38.8995 193.464 38.4299 192.433 38.1879C191.402 37.9459 190.33 37.9375 189.296 38.1635L91.5109 59.2367C89.7113 59.6205 88.0975 60.6095 86.9387 62.0389C85.7798 63.4684 85.1459 65.2518 85.1426 67.0919V67.0919Z" fill="white"/>
</g>
<defs>
<linearGradient id="paint0_linear_1_2" x1="30.3672" y1="31.2076" x2="235.26" y2="268.866" gradientUnits="userSpaceOnUse">
<stop stop-color="#C58AFF"/>
<stop offset="0.389716" stop-color="#685DE2"/>
</linearGradient>
<clipPath id="clip0_1_2">
<rect width="256" height="256" fill="white"/>
</clipPath>
</defs>
</svg>
